<?xml version="1.0" encoding="utf-8"?><svg xmlns="http://www.w3.org/2000/svg" xmlns:xlink="http://www.w3.org/1999/xlink"><symbol viewBox="0 0 16 24" id="basket" xmlns="http://www.w3.org/2000/svg"><path d="M14.42 14.967H5.115l.468-.951 7.762-.014a.543.543 0 00.534-.447l1.075-6.018a.542.542 0 00-.532-.639l-9.875-.032-.085-.397a.555.555 0 00-.54-.438H1.508a.552.552 0 100 1.103h1.967l.368 1.753.908 4.396-1.168 1.908a.546.546 0 00-.047.575.55.55 0 00.492.303h.981a1.604 1.604 0 001.281 2.567 1.604 1.604 0 001.282-2.567h2.517a1.604 1.604 0 001.281 2.567 1.604 1.604 0 001.281-2.567h1.77a.553.553 0 00.552-.552.553.553 0 00-.553-.55zM4.776 7.953l8.997.03-.881 4.934-7.067.013-1.049-4.977zm1.514 9.574a.495.495 0 010-.988.495.495 0 010 .988zm5.08 0a.495.495 0 010-.988.495.495 0 010 .988z"/></symbol><symbol viewBox="0 0 26 26" id="fb" xmlns="http://www.w3.org/2000/svg"><path d="M22.823.315H4.073A3.128 3.128 0 00.948 3.44v18.75a3.128 3.128 0 003.125 3.125h18.75a3.128 3.128 0 003.125-3.125V3.44A3.128 3.128 0 0022.823.315z"/><path d="M22.041 12.815h-3.906V9.69c0-.863.7-.781 1.563-.781h1.562V5.002h-3.125a4.687 4.687 0 00-4.687 4.688v3.125h-3.125v3.906h3.125v8.594h4.687V16.72h2.344l1.563-3.906z"/></symbol><symbol viewBox="0 0 18 18" id="home" xmlns="http://www.w3.org/2000/svg"><path d="M16.638 8.877L9.845 2.09l-.455-.456a.554.554 0 00-.78 0L1.362 8.877a1.123 1.123 0 00-.33.809 1.136 1.136 0 001.14 1.113h.748v5.725h12.16v-5.725h.763a1.12 1.12 0 001.04-.696 1.119 1.119 0 00-.246-1.226zm-6.654 6.381H8.016v-3.586h1.968v3.586zm3.83-5.725v5.725H11.11V11.25a.703.703 0 00-.703-.703H7.594a.703.703 0 00-.703.703v4.008H4.185V9.533H2.498l6.504-6.499.406.406 6.096 6.093h-1.69z"/></symbol><symbol viewBox="0 0 26 26" id="insta" xmlns="http://www.w3.org/2000/svg"><path d="M18.135.315H8.76A7.813 7.813 0 00.948 8.127v9.375a7.813 7.813 0 007.812 7.813h9.375a7.813 7.813 0 007.813-7.813V8.127A7.813 7.813 0 0018.135.315zm5.469 17.187a5.475 5.475 0 01-5.469 5.47H8.76a5.475 5.475 0 01-5.468-5.47V8.127A5.475 5.475 0 018.76 2.66h9.375a5.475 5.475 0 015.469 5.468v9.375z"/><path d="M13.448 6.565a6.25 6.25 0 100 12.5 6.25 6.25 0 000-12.5zm0 10.156a3.912 3.912 0 01-3.907-3.906 3.91 3.91 0 013.907-3.906 3.91 3.91 0 013.906 3.906 3.912 3.912 0 01-3.906 3.906zM20.167 6.929a.833.833 0 100-1.666.833.833 0 000 1.666z"/><defs><linearGradient id="dpaint0_linear" x1="3.236" y1="23.026" x2="23.659" y2="2.603" gradientUnits="userSpaceOnUse"><stop stop-color="#FFC107"/><stop offset=".507" stop-color="#F44336"/><stop offset=".99" stop-color="#9C27B0"/></linearGradient><linearGradient id="dpaint1_linear" x1="9.028" y1="17.234" x2="17.867" y2="8.396" gradientUnits="userSpaceOnUse"><stop stop-color="#FFC107"/><stop offset=".507" stop-color="#F44336"/><stop offset=".99" stop-color="#9C27B0"/></linearGradient><linearGradient id="dpaint2_linear" x1="19.578" y1="6.685" x2="20.755" y2="5.507" gradientUnits="userSpaceOnUse"><stop stop-color="#FFC107"/><stop offset=".507" stop-color="#F44336"/><stop offset=".99" stop-color="#9C27B0"/></linearGradient></defs></symbol><symbol viewBox="0 0 101 37" id="logo" xmlns="http://www.w3.org/2000/svg"><path d="M12.279 6.563h-2.14v1.07h2.14v-1.07zm0 2.139h-2.14v1.07h2.14v-1.07zm0 2.139h-2.14v1.07h2.14v-1.07zm7.487-3.743h-1.07a1.07 1.07 0 01-1.07 1.07v1.069a2.142 2.142 0 002.14-2.14zm2.674 2.673v-1.07a1.07 1.07 0 01-1.07-1.069H20.3a2.142 2.142 0 002.14 2.14z"/><path d="M28.055 33.05a10.17 10.17 0 01-2.738.123l-9.299-.846a.583.583 0 01.053-1.164h7.17a1.34 1.34 0 001.338-1.338v-.013c0-.28-.092-.554-.26-.779l-1.225-1.632a.603.603 0 01-.12-.36v-.091a.6.6 0 011.024-.424l2.342 2.341a.536.536 0 00.378.157h5.883v-1.07h-5.662l-2.184-2.185a1.701 1.701 0 00-.176-.152V13.515a.535.535 0 00-.535-.535h-.535v-1.604h.802a1.871 1.871 0 100-3.744h-.055a1.67 1.67 0 00-2.36-2.343 2.14 2.14 0 00-4.26 0 1.67 1.67 0 00-2.36 2.343h-.056a1.87 1.87 0 00-.802.181v-2.32a3.209 3.209 0 10-6.418 0v7.487h-.534a.535.535 0 00-.535.535v2.352l-2.872 2.461H.513v1.07h3.744a.535.535 0 00.348-.129l3.1-2.657a1.76 1.76 0 011.143-.423.222.222 0 01.157.378l-1.918 1.918a.535.535 0 00.379.913h5.615a.267.267 0 010 .535H9.07a.535.535 0 000 1.07h5.615a.267.267 0 110 .534H9.07a.535.535 0 000 1.07h4.546a.267.267 0 010 .534H9.07a.535.535 0 100 1.07h2.64a.033.033 0 01.025.054.034.034 0 01-.02.012l-3.673.46-3.638-1.04a.534.534 0 00-.147-.02H.513v1.069h3.669l2.749.785v5.097h.001a.53.53 0 00.534.535h7.059a1.652 1.652 0 001.396 2.23l9.299.845a11.139 11.139 0 003.026-.135l4.45-.809-.19-1.052-4.451.809zM13.348 10.841a.535.535 0 01.535-.535h1.07a2.141 2.141 0 012.139 2.14.536.536 0 01-.535.534h-1.07a2.141 2.141 0 01-2.139-2.139zm1.872-2.14h1.337a.535.535 0 00.378-.912l-.802-.802a.599.599 0 11.848-.848l.802.802a.535.535 0 00.913-.378v-1.07a1.07 1.07 0 012.14 0v1.07a.535.535 0 00.912.378l.802-.802a.6.6 0 01.848.848l-.802.802a.534.534 0 00.378.913h1.337a.802.802 0 010 1.604h-1.337a.534.534 0 00-.534.535v.285a3.202 3.202 0 00-4.481.199 3.214 3.214 0 00-3.006-2.088h-.488a.804.804 0 01.755-.535zm7.152 4.28h-4.143a2.14 2.14 0 014.143 0zM9.07 5.492a2.14 2.14 0 114.278 0V9.33a1.607 1.607 0 00-1.07 1.512c0 .79.292 1.552.82 2.14H9.07v-7.49zm1.07 8.557h1.07v4.278h-1.07V14.05zm-1.292 1.07c-.287 0-.573.044-.848.13v-1.2h1.07v1.09a1.295 1.295 0 00-.222-.02zm.222 2.895v.313h-.313l.313-.313zm1.07 7.537l1.07-.134v3.92l-1.07-1.07v-2.716zm-2.073.26l1.003-.126v2.582L8 29.338v-3.523a.545.545 0 00.067-.004zm.69 4.282l.848-.849.848.849H8.757zm3.522-4.906a1.104 1.104 0 00.534-.944v-.033h.803a1.338 1.338 0 001.305-1.625 1.337 1.337 0 00-.236-2.653h-.294a1.338 1.338 0 00-1.31-1.605h-.802V14.05h11.23v11.232a1.671 1.671 0 00-1.604 1.668v.091c0 .362.118.713.334 1.002l1.225 1.632a.23.23 0 01.046.137v.013a.268.268 0 01-.268.269H12.279v-4.906zm32.959-10.903V3.62h3.01c.928 0 1.748.205 2.461.616.713.41 1.262.993 1.648 1.75.39.757.588 1.626.593 2.607v.682c0 1.005-.195 1.887-.586 2.644a4.068 4.068 0 01-1.662 1.743c-.718.405-1.555.613-2.512.622h-2.952zm1.406-9.506v8.357h1.48c1.084 0 1.926-.337 2.526-1.011.606-.674.909-1.634.909-2.879v-.622c0-1.211-.286-2.151-.857-2.82-.567-.674-1.372-1.016-2.417-1.025h-1.641zm11.514 9.653c-1.075 0-1.949-.352-2.622-1.055-.674-.708-1.011-1.653-1.011-2.834v-.25c0-.785.149-1.486.447-2.101.302-.62.722-1.104 1.26-1.45a3.17 3.17 0 011.757-.528c1.03 0 1.831.34 2.403 1.018.57.679.856 1.65.856 2.915v.564H55.88c.02.781.246 1.414.681 1.897.44.479.996.718 1.67.718.478 0 .884-.098 1.216-.293a3.05 3.05 0 00.871-.776l.828.644c-.664 1.02-1.66 1.53-2.988 1.53zm-.169-7.105a1.8 1.8 0 00-1.377.601c-.37.395-.6.952-.688 1.67h3.97v-.103c-.04-.688-.225-1.22-.557-1.596-.332-.381-.781-.572-1.348-.572zm6.306 6.958H62.94V3.034h1.355v11.25zm3.648 0h-1.355V6.36h1.355v7.924zM66.478 4.258c0-.22.066-.406.198-.557.136-.151.337-.227.6-.227.264 0 .464.076.601.227a.8.8 0 01.205.557c0 .22-.068.402-.205.549-.137.146-.337.22-.6.22-.264 0-.465-.074-.601-.22a.79.79 0 01-.198-.55zm6.255 8.188l1.963-6.086h1.384l-2.842 7.924h-1.032L69.335 6.36h1.384l2.014 6.086zm7.837 1.985c-1.074 0-1.948-.352-2.622-1.055-.674-.708-1.011-1.653-1.011-2.834v-.25c0-.785.149-1.486.447-2.101.302-.62.722-1.104 1.26-1.45a3.169 3.169 0 011.757-.528c1.03 0 1.831.34 2.403 1.018.571.679.857 1.65.857 2.915v.564h-5.369c.02.781.247 1.414.681 1.897.44.479.996.718 1.67.718.479 0 .884-.098 1.216-.293.332-.195.622-.454.872-.776l.827.644c-.664 1.02-1.66 1.53-2.988 1.53zm-.17-7.105c-.546 0-1.005.2-1.377.601-.37.395-.6.952-.688 1.67h3.97v-.103c-.04-.688-.225-1.22-.557-1.596-.332-.381-.781-.572-1.348-.572zm8.665.25a4.06 4.06 0 00-.667-.052c-.888 0-1.491.379-1.809 1.135v5.625h-1.355V6.36h1.319l.022.915c.444-.708 1.074-1.062 1.89-1.062.263 0 .463.034.6.103v1.26zm3.977 4.724l1.846-5.94h1.45l-3.186 9.147c-.493 1.319-1.277 1.978-2.351 1.978l-.257-.022-.505-.095v-1.099l.366.03c.46 0 .816-.093 1.07-.279.258-.185.47-.525.637-1.018l.3-.806-2.827-7.836h1.48l1.977 5.94zM51.119 27.575h-4.475v4.71h-1.406V21.62h6.606v1.158h-5.2v3.647h4.475v1.15zm1.677.674c0-.777.152-1.475.455-2.095.307-.62.732-1.099 1.274-1.436.547-.336 1.17-.505 1.868-.505 1.079 0 1.95.374 2.614 1.12.67.748 1.004 1.741 1.004 2.982v.095c0 .771-.15 1.465-.447 2.08a3.338 3.338 0 01-1.267 1.428c-.547.342-1.177.513-1.89.513-1.074 0-1.946-.374-2.614-1.12-.665-.748-.997-1.737-.997-2.967v-.095zm1.363.16c0 .88.202 1.585.608 2.118.41.532.957.798 1.64.798.689 0 1.236-.269 1.64-.806.406-.542.609-1.299.609-2.27 0-.87-.208-1.572-.623-2.11-.41-.542-.957-.813-1.64-.813-.67 0-1.209.267-1.62.799-.41.532-.614 1.294-.614 2.285zm7.192-.16c0-.777.151-1.475.454-2.095.308-.62.733-1.099 1.275-1.436.547-.336 1.169-.505 1.867-.505 1.08 0 1.95.374 2.615 1.12.669.748 1.003 1.741 1.003 2.982v.095c0 .771-.148 1.465-.446 2.08a3.338 3.338 0 01-1.267 1.428c-.547.342-1.177.513-1.89.513-1.074 0-1.946-.374-2.615-1.12-.664-.748-.996-1.737-.996-2.967v-.095zm1.362.16c0 .88.203 1.585.608 2.118.41.532.957.798 1.64.798.69 0 1.236-.269 1.642-.806.405-.542.607-1.299.607-2.27 0-.87-.207-1.572-.622-2.11-.41-.542-.957-.813-1.64-.813-.67 0-1.21.267-1.62.799-.41.532-.615 1.294-.615 2.285zm7.222-.153c0-1.216.288-2.192.864-2.93.576-.742 1.33-1.113 2.263-1.113.928 0 1.663.317 2.205.952v-4.13h1.355v11.25h-1.245l-.066-.85c-.542.664-1.296.996-2.263.996-.918 0-1.668-.376-2.249-1.128-.576-.752-.864-1.733-.864-2.944v-.103zm1.355.154c0 .898.186 1.601.557 2.11.37.507.884.761 1.538.761.86 0 1.487-.386 1.882-1.157v-3.64c-.405-.748-1.028-1.121-1.868-1.121-.664 0-1.181.256-1.552.769s-.557 1.272-.557 2.278z"/></symbol><symbol viewBox="0 0 18 18" id="search" xmlns="http://www.w3.org/2000/svg"><path d="M15.99 15.02l-4.566-4.564a5.226 5.226 0 001.092-3.214c0-1.41-.55-2.731-1.546-3.728a5.234 5.234 0 00-3.728-1.545 5.24 5.24 0 00-3.728 1.545 5.232 5.232 0 00-1.545 3.728 5.24 5.24 0 001.545 3.728 5.231 5.231 0 003.728 1.546 5.23 5.23 0 003.212-1.09l4.565 4.563a.142.142 0 00.102.042.143.143 0 00.102-.042l.766-.765a.143.143 0 00.031-.157.143.143 0 00-.03-.046zm-5.963-4.993a3.917 3.917 0 01-2.785 1.153 3.917 3.917 0 01-2.784-1.153 3.916 3.916 0 01-1.153-2.785c0-1.051.41-2.04 1.153-2.784a3.916 3.916 0 012.784-1.153c1.051 0 2.041.407 2.785 1.153a3.916 3.916 0 011.153 2.784c0 1.051-.41 2.041-1.153 2.785z"/></symbol><symbol viewBox="0 0 15 15" id="star" xmlns="http://www.w3.org/2000/svg"><path d="M14.652 6.242a.78.78 0 00-.673-.537L9.74 5.32 8.063 1.396a.781.781 0 00-1.436 0L4.95 5.32l-4.24.385a.78.78 0 00-.443 1.367l3.205 2.81-.945 4.163a.78.78 0 001.16.844l3.658-2.186L11 14.889a.781.781 0 001.162-.844l-.945-4.163 3.204-2.81a.781.781 0 00.23-.83z"/></symbol><symbol viewBox="0 0 16 16" id="user" xmlns="http://www.w3.org/2000/svg"><path d="M13.415 11.931a5.844 5.844 0 00-1.26-1.867 5.869 5.869 0 00-1.867-1.26l-.019-.007a3.874 3.874 0 10-4.538.002l-.018.007c-.7.296-1.328.719-1.867 1.26a5.87 5.87 0 00-1.72 4.025.125.125 0 00.124.128h.938a.125.125 0 00.125-.122 4.658 4.658 0 011.372-3.192A4.657 4.657 0 018 9.53c1.254 0 2.43.488 3.316 1.374a4.658 4.658 0 011.372 3.192.124.124 0 00.125.122h.937a.125.125 0 00.125-.128 5.823 5.823 0 00-.46-2.16zM8 8.344a2.67 2.67 0 01-1.9-.788 2.67 2.67 0 01-.787-1.9c0-.717.28-1.392.787-1.9A2.67 2.67 0 018 2.97c.718 0 1.393.28 1.9.787a2.67 2.67 0 01.788 1.9 2.67 2.67 0 01-.788 1.9 2.67 2.67 0 01-1.9.788z"/></symbol><symbol viewBox="0 0 36 21" id="vk" xmlns="http://www.w3.org/2000/svg"><path d="M18.099 20.73h2.094s.634-.07.956-.418c.298-.32.287-.92.287-.92s-.042-2.811 1.264-3.225c1.286-.408 2.938 2.717 4.688 3.92 1.324.909 2.33.71 2.33.71l4.681-.066s2.45-.152 1.289-2.077c-.095-.158-.677-1.424-3.482-4.027-2.936-2.726-2.541-2.283.995-6.996 2.154-2.87 3.015-4.623 2.745-5.372-.256-.714-1.84-.526-1.84-.526l-5.267.03s-.39-.052-.682.121c-.282.171-.464.565-.464.565s-.835 2.222-1.948 4.11c-2.346 3.986-3.286 4.196-3.67 3.949-.891-.577-.668-2.318-.668-3.554 0-3.863.585-5.473-1.141-5.89-.574-.137-.995-.23-2.46-.245-1.88-.02-3.473.007-4.374.447-.6.294-1.062.949-.78.986.349.046 1.137.213 1.556.782.54.734.521 2.386.521 2.386s.311 4.547-.725 5.112c-.712.388-1.687-.403-3.78-4.02-1.07-1.852-1.881-3.9-1.881-3.9s-.156-.382-.434-.585c-.338-.248-.81-.327-.81-.327l-5.01.03s-.75.023-1.027.35c-.245.29-.02.89-.02.89s3.922 9.174 8.361 13.8c4.073 4.239 8.696 3.96 8.696 3.96z"/></symbol></svg>