<?xml version="1.0" encoding="utf-8"?><svg xmlns="http://www.w3.org/2000/svg" xmlns:xlink="http://www.w3.org/1999/xlink"><symbol viewBox="0 0 16 24" id="basket" xmlns="http://www.w3.org/2000/svg"><path d="M14.42 14.967H5.115l.468-.951 7.762-.014a.543.543 0 00.534-.447l1.075-6.018a.542.542 0 00-.532-.639l-9.875-.032-.085-.397a.555.555 0 00-.54-.438H1.508a.552.552 0 100 1.103h1.967l.368 1.753.908 4.396-1.168 1.908a.546.546 0 00-.047.575.55.55 0 00.492.303h.981a1.604 1.604 0 001.281 2.567 1.604 1.604 0 001.282-2.567h2.517a1.604 1.604 0 001.281 2.567 1.604 1.604 0 001.281-2.567h1.77a.553.553 0 00.552-.552.553.553 0 00-.553-.55zM4.776 7.953l8.997.03-.881 4.934-7.067.013-1.049-4.977zm1.514 9.574a.495.495 0 010-.988.495.495 0 010 .988zm5.08 0a.495.495 0 010-.988.495.495 0 010 .988z"/></symbol><symbol viewBox="0 0 18 18" id="home" xmlns="http://www.w3.org/2000/svg"><path d="M16.638 8.877L9.845 2.09l-.455-.456a.554.554 0 00-.78 0L1.362 8.877a1.123 1.123 0 00-.33.809 1.136 1.136 0 001.14 1.113h.748v5.725h12.16v-5.725h.763a1.12 1.12 0 001.04-.696 1.119 1.119 0 00-.246-1.226zm-6.654 6.381H8.016v-3.586h1.968v3.586zm3.83-5.725v5.725H11.11V11.25a.703.703 0 00-.703-.703H7.594a.703.703 0 00-.703.703v4.008H4.185V9.533H2.498l6.504-6.499.406.406 6.096 6.093h-1.69z"/></symbol><symbol viewBox="0 0 101 37" id="logo" xmlns="http://www.w3.org/2000/svg"><path d="M12.279 6.563h-2.14v1.07h2.14v-1.07zm0 2.139h-2.14v1.07h2.14v-1.07zm0 2.139h-2.14v1.07h2.14v-1.07zm7.487-3.743h-1.07a1.07 1.07 0 01-1.07 1.07v1.069a2.142 2.142 0 002.14-2.14zm2.674 2.673v-1.07a1.07 1.07 0 01-1.07-1.069H20.3a2.142 2.142 0 002.14 2.14z"/><path d="M28.055 33.05a10.17 10.17 0 01-2.738.123l-9.299-.846a.583.583 0 01.053-1.164h7.17a1.34 1.34 0 001.338-1.338v-.013c0-.28-.092-.554-.26-.779l-1.225-1.632a.603.603 0 01-.12-.36v-.091a.6.6 0 011.024-.424l2.342 2.341a.536.536 0 00.378.157h5.883v-1.07h-5.662l-2.184-2.185a1.701 1.701 0 00-.176-.152V13.515a.535.535 0 00-.535-.535h-.535v-1.604h.802a1.871 1.871 0 100-3.744h-.055a1.67 1.67 0 00-2.36-2.343 2.14 2.14 0 00-4.26 0 1.67 1.67 0 00-2.36 2.343h-.056a1.87 1.87 0 00-.802.181v-2.32a3.209 3.209 0 10-6.418 0v7.487h-.534a.535.535 0 00-.535.535v2.352l-2.872 2.461H.513v1.07h3.744a.535.535 0 00.348-.129l3.1-2.657a1.76 1.76 0 011.143-.423.222.222 0 01.157.378l-1.918 1.918a.535.535 0 00.379.913h5.615a.267.267 0 010 .535H9.07a.535.535 0 000 1.07h5.615a.267.267 0 110 .534H9.07a.535.535 0 000 1.07h4.546a.267.267 0 010 .534H9.07a.535.535 0 100 1.07h2.64a.033.033 0 01.025.054.034.034 0 01-.02.012l-3.673.46-3.638-1.04a.534.534 0 00-.147-.02H.513v1.069h3.669l2.749.785v5.097h.001a.53.53 0 00.534.535h7.059a1.652 1.652 0 001.396 2.23l9.299.845a11.139 11.139 0 003.026-.135l4.45-.809-.19-1.052-4.451.809zM13.348 10.841a.535.535 0 01.535-.535h1.07a2.141 2.141 0 012.139 2.14.536.536 0 01-.535.534h-1.07a2.141 2.141 0 01-2.139-2.139zm1.872-2.14h1.337a.535.535 0 00.378-.912l-.802-.802a.599.599 0 11.848-.848l.802.802a.535.535 0 00.913-.378v-1.07a1.07 1.07 0 012.14 0v1.07a.535.535 0 00.912.378l.802-.802a.6.6 0 01.848.848l-.802.802a.534.534 0 00.378.913h1.337a.802.802 0 010 1.604h-1.337a.534.534 0 00-.534.535v.285a3.202 3.202 0 00-4.481.199 3.214 3.214 0 00-3.006-2.088h-.488a.804.804 0 01.755-.535zm7.152 4.28h-4.143a2.14 2.14 0 014.143 0zM9.07 5.492a2.14 2.14 0 114.278 0V9.33a1.607 1.607 0 00-1.07 1.512c0 .79.292 1.552.82 2.14H9.07v-7.49zm1.07 8.557h1.07v4.278h-1.07V14.05zm-1.292 1.07c-.287 0-.573.044-.848.13v-1.2h1.07v1.09a1.295 1.295 0 00-.222-.02zm.222 2.895v.313h-.313l.313-.313zm1.07 7.537l1.07-.134v3.92l-1.07-1.07v-2.716zm-2.073.26l1.003-.126v2.582L8 29.338v-3.523a.545.545 0 00.067-.004zm.69 4.282l.848-.849.848.849H8.757zm3.522-4.906a1.104 1.104 0 00.534-.944v-.033h.803a1.338 1.338 0 001.305-1.625 1.337 1.337 0 00-.236-2.653h-.294a1.338 1.338 0 00-1.31-1.605h-.802V14.05h11.23v11.232a1.671 1.671 0 00-1.604 1.668v.091c0 .362.118.713.334 1.002l1.225 1.632a.23.23 0 01.046.137v.013a.268.268 0 01-.268.269H12.279v-4.906zm32.959-10.903V3.62h3.01c.928 0 1.748.205 2.461.616.713.41 1.262.993 1.648 1.75.39.757.588 1.626.593 2.607v.682c0 1.005-.195 1.887-.586 2.644a4.068 4.068 0 01-1.662 1.743c-.718.405-1.555.613-2.512.622h-2.952zm1.406-9.506v8.357h1.48c1.084 0 1.926-.337 2.526-1.011.606-.674.909-1.634.909-2.879v-.622c0-1.211-.286-2.151-.857-2.82-.567-.674-1.372-1.016-2.417-1.025h-1.641zm11.514 9.653c-1.075 0-1.949-.352-2.622-1.055-.674-.708-1.011-1.653-1.011-2.834v-.25c0-.785.149-1.486.447-2.101.302-.62.722-1.104 1.26-1.45a3.17 3.17 0 011.757-.528c1.03 0 1.831.34 2.403 1.018.57.679.856 1.65.856 2.915v.564H55.88c.02.781.246 1.414.681 1.897.44.479.996.718 1.67.718.478 0 .884-.098 1.216-.293a3.05 3.05 0 00.871-.776l.828.644c-.664 1.02-1.66 1.53-2.988 1.53zm-.169-7.105a1.8 1.8 0 00-1.377.601c-.37.395-.6.952-.688 1.67h3.97v-.103c-.04-.688-.225-1.22-.557-1.596-.332-.381-.781-.572-1.348-.572zm6.306 6.958H62.94V3.034h1.355v11.25zm3.648 0h-1.355V6.36h1.355v7.924zM66.478 4.258c0-.22.066-.406.198-.557.136-.151.337-.227.6-.227.264 0 .464.076.601.227a.8.8 0 01.205.557c0 .22-.068.402-.205.549-.137.146-.337.22-.6.22-.264 0-.465-.074-.601-.22a.79.79 0 01-.198-.55zm6.255 8.188l1.963-6.086h1.384l-2.842 7.924h-1.032L69.335 6.36h1.384l2.014 6.086zm7.837 1.985c-1.074 0-1.948-.352-2.622-1.055-.674-.708-1.011-1.653-1.011-2.834v-.25c0-.785.149-1.486.447-2.101.302-.62.722-1.104 1.26-1.45a3.169 3.169 0 011.757-.528c1.03 0 1.831.34 2.403 1.018.571.679.857 1.65.857 2.915v.564h-5.369c.02.781.247 1.414.681 1.897.44.479.996.718 1.67.718.479 0 .884-.098 1.216-.293.332-.195.622-.454.872-.776l.827.644c-.664 1.02-1.66 1.53-2.988 1.53zm-.17-7.105c-.546 0-1.005.2-1.377.601-.37.395-.6.952-.688 1.67h3.97v-.103c-.04-.688-.225-1.22-.557-1.596-.332-.381-.781-.572-1.348-.572zm8.665.25a4.06 4.06 0 00-.667-.052c-.888 0-1.491.379-1.809 1.135v5.625h-1.355V6.36h1.319l.022.915c.444-.708 1.074-1.062 1.89-1.062.263 0 .463.034.6.103v1.26zm3.977 4.724l1.846-5.94h1.45l-3.186 9.147c-.493 1.319-1.277 1.978-2.351 1.978l-.257-.022-.505-.095v-1.099l.366.03c.46 0 .816-.093 1.07-.279.258-.185.47-.525.637-1.018l.3-.806-2.827-7.836h1.48l1.977 5.94zM51.119 27.575h-4.475v4.71h-1.406V21.62h6.606v1.158h-5.2v3.647h4.475v1.15zm1.677.674c0-.777.152-1.475.455-2.095.307-.62.732-1.099 1.274-1.436.547-.336 1.17-.505 1.868-.505 1.079 0 1.95.374 2.614 1.12.67.748 1.004 1.741 1.004 2.982v.095c0 .771-.15 1.465-.447 2.08a3.338 3.338 0 01-1.267 1.428c-.547.342-1.177.513-1.89.513-1.074 0-1.946-.374-2.614-1.12-.665-.748-.997-1.737-.997-2.967v-.095zm1.363.16c0 .88.202 1.585.608 2.118.41.532.957.798 1.64.798.689 0 1.236-.269 1.64-.806.406-.542.609-1.299.609-2.27 0-.87-.208-1.572-.623-2.11-.41-.542-.957-.813-1.64-.813-.67 0-1.209.267-1.62.799-.41.532-.614 1.294-.614 2.285zm7.192-.16c0-.777.151-1.475.454-2.095.308-.62.733-1.099 1.275-1.436.547-.336 1.169-.505 1.867-.505 1.08 0 1.95.374 2.615 1.12.669.748 1.003 1.741 1.003 2.982v.095c0 .771-.148 1.465-.446 2.08a3.338 3.338 0 01-1.267 1.428c-.547.342-1.177.513-1.89.513-1.074 0-1.946-.374-2.615-1.12-.664-.748-.996-1.737-.996-2.967v-.095zm1.362.16c0 .88.203 1.585.608 2.118.41.532.957.798 1.64.798.69 0 1.236-.269 1.642-.806.405-.542.607-1.299.607-2.27 0-.87-.207-1.572-.622-2.11-.41-.542-.957-.813-1.64-.813-.67 0-1.21.267-1.62.799-.41.532-.615 1.294-.615 2.285zm7.222-.153c0-1.216.288-2.192.864-2.93.576-.742 1.33-1.113 2.263-1.113.928 0 1.663.317 2.205.952v-4.13h1.355v11.25h-1.245l-.066-.85c-.542.664-1.296.996-2.263.996-.918 0-1.668-.376-2.249-1.128-.576-.752-.864-1.733-.864-2.944v-.103zm1.355.154c0 .898.186 1.601.557 2.11.37.507.884.761 1.538.761.86 0 1.487-.386 1.882-1.157v-3.64c-.405-.748-1.028-1.121-1.868-1.121-.664 0-1.181.256-1.552.769s-.557 1.272-.557 2.278z"/></symbol><symbol viewBox="0 0 18 18" id="search" xmlns="http://www.w3.org/2000/svg"><path d="M15.99 15.02l-4.566-4.564a5.226 5.226 0 001.092-3.214c0-1.41-.55-2.731-1.546-3.728a5.234 5.234 0 00-3.728-1.545 5.24 5.24 0 00-3.728 1.545 5.232 5.232 0 00-1.545 3.728 5.24 5.24 0 001.545 3.728 5.231 5.231 0 003.728 1.546 5.23 5.23 0 003.212-1.09l4.565 4.563a.142.142 0 00.102.042.143.143 0 00.102-.042l.766-.765a.143.143 0 00.031-.157.143.143 0 00-.03-.046zm-5.963-4.993a3.917 3.917 0 01-2.785 1.153 3.917 3.917 0 01-2.784-1.153 3.916 3.916 0 01-1.153-2.785c0-1.051.41-2.04 1.153-2.784a3.916 3.916 0 012.784-1.153c1.051 0 2.041.407 2.785 1.153a3.916 3.916 0 011.153 2.784c0 1.051-.41 2.041-1.153 2.785z"/></symbol><symbol viewBox="0 0 15 15" id="star" xmlns="http://www.w3.org/2000/svg"><path d="M14.652 6.242a.78.78 0 00-.673-.537L9.74 5.32 8.063 1.396a.781.781 0 00-1.436 0L4.95 5.32l-4.24.385a.78.78 0 00-.443 1.367l3.205 2.81-.945 4.163a.78.78 0 001.16.844l3.658-2.186L11 14.889a.781.781 0 001.162-.844l-.945-4.163 3.204-2.81a.781.781 0 00.23-.83z"/></symbol><symbol viewBox="0 0 16 16" id="user" xmlns="http://www.w3.org/2000/svg"><path d="M13.415 11.931a5.844 5.844 0 00-1.26-1.867 5.869 5.869 0 00-1.867-1.26l-.019-.007a3.874 3.874 0 10-4.538.002l-.018.007c-.7.296-1.328.719-1.867 1.26a5.87 5.87 0 00-1.72 4.025.125.125 0 00.124.128h.938a.125.125 0 00.125-.122 4.658 4.658 0 011.372-3.192A4.657 4.657 0 018 9.53c1.254 0 2.43.488 3.316 1.374a4.658 4.658 0 011.372 3.192.124.124 0 00.125.122h.937a.125.125 0 00.125-.128 5.823 5.823 0 00-.46-2.16zM8 8.344a2.67 2.67 0 01-1.9-.788 2.67 2.67 0 01-.787-1.9c0-.717.28-1.392.787-1.9A2.67 2.67 0 018 2.97c.718 0 1.393.28 1.9.787a2.67 2.67 0 01.788 1.9 2.67 2.67 0 01-.788 1.9 2.67 2.67 0 01-1.9.788z"/></symbol><symbol viewBox="0 0 27 16" id="behance" xmlns="http://www.w3.org/2000/svg"><path d="M13.754 11.016c0 4.77-5.11 4.613-5.11 4.613H.27V0h8.372c2.545 0 4.553 1.365 4.553 4.161 0 2.797-2.455 2.975-2.455 2.975 3.237 0 3.013 3.88 3.013 3.88zM3.96 6.266h4.393c.759 0 1.429-.236 1.429-1.862 0-1.625-1.139-1.625-1.139-1.625H3.96zm6.38 4.555c0-2.168-1.697-2.146-1.697-2.146H3.96v4.177h4.467c.672-.019 1.912-.223 1.912-2.031zm6.77-9.9h6.638v1.925H17.11zm9.061 9.84h-8.337c0 2.903 2.832 2.72 2.832 2.72 2.674 0 2.58-1.682 2.58-1.682h2.831c0 4.462-5.506 4.157-5.506 4.157-6.606 0-6.182-5.975-6.182-5.975s-.005-6.004 6.182-6.004c6.512 0 5.6 6.783 5.6 6.783zm-5.537-4.495c-2.485 0-2.832 2.41-2.832 2.41h5.286s.032-2.41-2.454-2.41z"/></symbol><symbol viewBox="0 0 7 18" id="facebook" xmlns="http://www.w3.org/2000/svg"><path d="M1.513 3.486v2.478H0v3.03h1.513V18h3.108V8.995h2.086s.195-1.453.29-3.042H4.633V3.881c0-.31.339-.727.674-.727H7V0H4.698C1.436 0 1.513 3.033 1.513 3.486z"/></symbol><symbol viewBox="0 0 18 18" id="instagram" xmlns="http://www.w3.org/2000/svg"><path d="M18 4.967v8.065A4.973 4.973 0 0113.032 18H4.967A4.973 4.973 0 010 13.032V4.967A4.973 4.973 0 014.967 0h8.065A4.973 4.973 0 0118 4.967zm-1.597 8.065V4.967a3.374 3.374 0 00-3.37-3.37H4.966a3.374 3.374 0 00-3.37 3.37v8.065a3.374 3.374 0 003.37 3.37h8.066a3.374 3.374 0 003.37-3.37zM13.638 9A4.643 4.643 0 019 13.638 4.643 4.643 0 014.362 9 4.643 4.643 0 019 4.362 4.643 4.643 0 0113.638 9zm-1.597 0A3.045 3.045 0 009 5.959a3.045 3.045 0 00-3.041 3.04 3.045 3.045 0 003.04 3.042A3.045 3.045 0 0012.042 9zm2.62-5.65a1.176 1.176 0 010 1.657c-.218.217-.52.343-.828.343a1.18 1.18 0 01-.828-.343 1.181 1.181 0 01-.344-.828 1.176 1.176 0 011.172-1.172c.308 0 .61.125.828.343z"/></symbol><symbol viewBox="0 0 24 22" id="logo" xmlns="http://www.w3.org/2000/svg"><defs><clipPath id="da"><path d="M0 22V3h6l2-3h8l2 3h6v19zM12 9a3 3 0 100 6 3 3 0 000-6z"/></clipPath></defs><path d="M0 22V3h6l2-3h8l2 3h6v19zM12 9a3 3 0 100 6 3 3 0 000-6z" clip-path="url(#da)"/></symbol><symbol viewBox="0 0 32.666 32.666" id="ph" xmlns="http://www.w3.org/2000/svg"><path d="M28.189 16.504h-1.666c0-5.437-4.422-9.858-9.856-9.858l-.001-1.664c6.355-.003 11.523 5.167 11.523 11.522zM16.666 7.856l-.001 1.664a6.987 6.987 0 016.981 6.983l1.666-.001c0-4.767-3.876-8.646-8.646-8.646zM16.333 0C7.326 0 0 7.326 0 16.334c0 9.006 7.326 16.332 16.333 16.332a1.007 1.007 0 000-2.016c-7.896 0-14.318-6.424-14.318-14.316 0-7.896 6.422-14.319 14.318-14.319S30.65 8.439 30.65 16.334c0 3.299-1.756 6.568-4.269 7.954a6.172 6.172 0 01-2.959.761 4.733 4.733 0 001.591-1.529c.08-.121.186-.228.238-.359.328-.789.357-1.684.555-2.518.243-1.064-4.658-3.143-5.084-1.814-.154.492-.39 2.048-.699 2.458-.275.366-.953.192-1.377-.168-1.117-.952-2.364-2.351-3.458-3.457l.002-.001-.092-.092c-.031-.029-.062-.062-.093-.092v.002c-1.106-1.096-2.506-2.34-3.457-3.459-.36-.424-.534-1.102-.168-1.377.41-.311 1.966-.543 2.458-.699 1.326-.424-.75-5.328-1.816-5.084-.832.195-1.727.227-2.516.553-.134.057-.238.16-.359.24-2.799 1.774-3.16 6.082-.428 9.292a75.688 75.688 0 003.245 3.576l-.006.004c.031.031.063.06.095.09.03.031.059.062.088.095l.006-.006c1.16 1.118 2.535 2.765 4.769 4.255 4.703 3.141 8.312 2.264 10.438 1.098 3.67-2.021 5.312-6.338 5.312-9.719C32.666 7.326 25.339 0 16.333 0z"/></symbol><symbol viewBox="0 0 25.625 25.625" id="phone" xmlns="http://www.w3.org/2000/svg"><path d="M22.079 17.835c-1.548-1.324-3.119-2.126-4.648-.804l-.913.799c-.668.58-1.91 3.29-6.712-2.234-4.801-5.517-1.944-6.376-1.275-6.951l.918-.8c1.521-1.325.947-2.993-.15-4.71l-.662-1.04C7.535.382 6.335-.743 4.81.58l-.824.72c-.674.491-2.558 2.087-3.015 5.119-.55 3.638 1.185 7.804 5.16 12.375 3.97 4.573 7.857 6.87 11.539 6.83 3.06-.033 4.908-1.675 5.486-2.272l.827-.721c1.521-1.322.576-2.668-.973-3.995l-.931-.801z"/></symbol><symbol viewBox="0 0 19 16" id="twitter" xmlns="http://www.w3.org/2000/svg"><path d="M18.476.296a7.676 7.676 0 01-2.477.98A3.822 3.822 0 0013.155 0c-2.153 0-3.899 1.81-3.899 4.04 0 .315.035.624.101.92C6.118 4.79 3.246 3.181 1.323.737a4.125 4.125 0 00-.527 2.03c0 1.403.69 2.64 1.734 3.363a3.783 3.783 0 01-1.765-.507v.05c0 1.958 1.343 3.59 3.126 3.963a3.808 3.808 0 01-1.76.068c.495 1.605 1.934 2.773 3.64 2.807A7.648 7.648 0 010 14.185 10.76 10.76 0 005.975 16c7.17 0 11.09-6.157 11.09-11.496l-.013-.523A8.009 8.009 0 0019 1.893c-.7.32-1.45.539-2.238.636A4.04 4.04 0 0018.476.296z"/></symbol><symbol viewBox="0 0 1280 720" id="vk" xmlns="http://www.w3.org/2000/svg"><path d="M481.7 2.6c-15.2 3.1-25.7 7.2-34.3 13.3-13.1 9.3-23.4 21.3-23.4 27.3 0 3.2 1.6 4.1 9.5 5.3 14.9 2.2 33.4 10.7 43.3 19.9 8.9 8.3 13.6 18 18.6 38.1 9.3 37.8 12.1 101.5 6.6 152.5-4.8 44.8-7.4 57.9-14.9 73.5-6.1 12.9-8.9 16.1-15.4 18-15.9 4.7-29.4-.9-50.8-21.2-22.5-21.4-46.6-58.2-74.8-114-5-9.8-12.5-24.1-16.7-31.8-11.2-20.4-39.8-79.9-49.4-102.5-4.5-10.7-9.6-22.4-11.3-26-5.4-11.3-16.6-20.4-31.8-25.7l-7.4-2.5-57.5.1C93.5 27 33.7 28 26.5 29.1c-6.4 1.1-15.7 4.9-18.9 7.7-1 .9-3.2 3.7-4.8 6.1C.3 46.9 0 48.3 0 55.3c0 10.2 1.7 15.1 17.3 50.2 47.1 106 109.6 221.9 163.2 303 36.2 54.6 91.9 129 118.7 158.5 9.9 10.9 31.3 31.4 43.2 41.4 25.5 21.5 76.7 55.6 109.1 72.7 30.4 16 74.5 30.8 109.9 36.9 11.2 1.9 16 2 83.2 2 70.6 0 71.4 0 77.1-2.2 10.2-3.7 17.7-9.7 21.4-17 4-7.8 5.1-14.8 5.9-37.8.9-23.8 2.4-35.2 6.7-51.4 5.5-21 11.5-32 24.7-45.2 9.9-9.9 14.7-12.4 23.5-12.4 17.3.1 41.6 18.4 72.8 54.8 33.5 39.1 62 68.9 78.8 82.4 12.1 9.7 29.3 19.5 44.6 25.4l8.8 3.4H1127c115 0 118.2-.1 123.9-2 11.2-3.7 20.5-10.4 24.8-17.8 2.5-4.2 2.8-5.9 3.1-15.2.5-12.7-2.1-24.9-7.2-35.1-17.6-34.7-61.6-87.3-114.4-136.9-36.9-34.7-70.4-68.7-75.9-77.1-6.5-10-9.7-19.9-9.6-29.8.2-19.3 11.2-37.2 68.9-112.3 47.1-61.3 64.4-84.8 85.9-117.3 24.7-37.2 40.8-67.3 48.6-90.5 3.8-11.1 4.3-13.8 4.7-24 .4-11.1.3-11.7-2.5-17-6.9-13.2-28.8-19.9-58.1-17.9-5.7.4-55.9 1-111.5 1.4-110.1.7-108.9.6-116.9 6.4C982.4 41 980 45.2 966.2 79c-26.4 64.7-56.8 121.6-98.7 185-22.8 34.5-38 53.3-55.9 69.1-12.8 11.4-21.5 16.9-26.5 16.9-7.9 0-14.2-2.6-19.8-8.2-10.3-10.1-14.9-23.9-17.3-51.3-1.1-12.4 0-102.8 1.5-134.5 1.5-29.1 2.2-77.2 1.4-89.7-1.7-27.7-10-46.9-23.5-54.8-6.6-3.9-16.6-7.4-27.2-9.6C691.2.1 686 0 592.1.1h-98.6l-11.8 2.5z"/></symbol></svg>